<svg width="30" height="30" viewBox="0 0 30 30" fill="none" xmlns="http://www.w3.org/2000/svg">
<g clip-path="url(#clip0_11_54)">
<path d="M14.9999 20C14.7436 20 14.4986 19.895 14.3224 19.71L7.75987 12.835C7.19112 12.24 7.61362 11.25 8.43737 11.25H11.8749V4.06253C11.8749 3.20128 12.5761 2.50003 13.4374 2.50003H16.5624C17.4236 2.50003 18.1249 3.20128 18.1249 4.06253V11.25H21.5624C22.3861 11.25 22.8086 12.24 22.2399 12.835L15.6774 19.71C15.5011 19.895 15.2561 20 14.9999 20Z" fill="#3448AD"/>
<path d="M27.8125 27.5H2.1875C0.98125 27.5 0 26.5188 0 25.3125V24.6875C0 23.4813 0.98125 22.5 2.1875 22.5H27.8125C29.0187 22.5 30 23.4813 30 24.6875V25.3125C30 26.5188 29.0187 27.5 27.8125 27.5Z" fill="#3448AD"/>
</g>
<defs>
<clipPath id="clip0_11_54">
<rect width="30" height="30" fill="white"/>
</clipPath>
</defs>
</svg>
