<svg width="20" height="24" viewBox="0 0 20 24" fill="none" xmlns="http://www.w3.org/2000/svg">
<path d="M16.6097 4.23478C18.0125 3.47494 19.1513 2.38383 19.9029 1.07944C20.0302 0.858469 20.0325 0.584203 19.9088 0.361031C19.7851 0.137812 19.5545 0 19.3046 0H0.695348C0.445524 0 0.214893 0.137812 0.0912124 0.360984C-0.0324685 0.584203 -0.0302346 0.858469 0.0970934 1.07939C0.848661 2.38378 1.98746 3.47494 3.3903 4.23473C4.59492 4.88723 5.95308 5.27241 7.35242 5.36316V7.2H4.0661C2.83736 7.2 1.79817 8.14566 1.64883 9.39966L0.244526 21.1916C0.159777 21.903 0.376185 22.6187 0.83813 23.1555C1.30008 23.6922 1.9648 24 2.6618 24H17.3386C18.0356 24 18.7003 23.6922 19.1622 23.1555C19.6242 22.6188 19.8406 21.903 19.7558 21.1916L18.3516 9.39975C18.2022 8.1457 17.1631 7.20009 15.9343 7.20009H12.6476V5.36325C14.0469 5.27241 15.4051 4.88723 16.6097 4.23478ZM15.9343 8.62997C16.4614 8.62997 16.9071 9.03558 16.9712 9.57356L18.3755 21.3654C18.4123 21.675 18.322 21.9742 18.1208 22.2079C17.9197 22.4415 17.6419 22.5701 17.3386 22.5701H2.66175C2.35836 22.5701 2.08055 22.4415 1.8795 22.2078C1.67841 21.9743 1.58797 21.6751 1.62485 21.3654L3.0291 9.57356C3.09315 9.03567 3.53896 8.63002 4.06605 8.63002H15.9343V8.62997ZM8.74304 7.20005V5.38448H11.2569V7.20005H8.74304ZM12.004 3.95456H7.99594C5.6383 3.95456 3.47527 3.01172 2.07234 1.42997H17.9276C16.5247 3.01167 14.3617 3.95456 12.004 3.95456Z" fill="#3448AD"/>
<path d="M10.0002 9.74072C6.85803 9.74072 4.30176 12.3692 4.30176 15.6C4.30176 18.8308 6.85807 21.4592 10.0002 21.4592C13.1422 21.4592 15.6985 18.8308 15.6985 15.6C15.6985 12.3691 13.1423 9.74072 10.0002 9.74072ZM10.0002 20.0293C7.62487 20.0293 5.69247 18.0423 5.69247 15.6C5.69247 13.1577 7.62491 11.1707 10.0002 11.1707C12.3754 11.1707 14.3078 13.1577 14.3078 15.6C14.3078 18.0422 12.3754 20.0293 10.0002 20.0293Z" fill="#3448AD"/>
<path d="M10.4919 15.0944C10.2204 14.8152 9.78007 14.8152 9.5086 15.0944L7.83441 16.8159C7.56285 17.0951 7.56285 17.5478 7.83441 17.827C7.97018 17.9666 8.14815 18.0364 8.32608 18.0364C8.50401 18.0364 8.68199 17.9666 8.81775 17.827L10.4919 16.1055C10.7634 15.8263 10.7634 15.3736 10.4919 15.0944Z" fill="#3448AD"/>
</svg>
