<svg width="571" height="349" viewBox="0 0 571 349" fill="none" xmlns="http://www.w3.org/2000/svg">
<g clip-path="url(#clip0_63_852)">
<g opacity="0.85">
<path opacity="0.85" d="M25.3701 198.294C32.3208 162.299 71.0709 139.505 111.863 147.407C152.655 155.309 180.11 190.869 173.159 226.863C170.118 242.624 160.996 255.823 148.311 265.028H55.7359C33.1027 249.701 20.4177 224.128 25.3701 198.294Z" fill="url(#paint0_linear_63_852)"/>
<path opacity="0.85" d="M234.021 101.947C250.964 57.3562 294.623 29.0906 346.579 23.1422C367.779 8.5535 393.453 0 421.126 0C488.938 0 544.805 51.2776 551.972 117.144C538.462 58.8758 486.158 15.4137 423.732 15.4137C408.831 15.4137 394.539 17.8885 381.159 22.4475C400.143 23.8369 419.648 28.0485 438.893 35.3429C490.589 54.9682 528.818 92.5254 545.586 134.424C565.439 139.374 575.779 171.938 568.784 208.15C561.66 245.012 539.201 271.715 518.653 267.72C517.523 267.503 516.437 267.199 515.394 266.808C474.212 302.108 407.137 312.181 342.887 287.78C256.264 254.868 207.522 171.634 234.021 101.947Z" fill="url(#paint1_linear_63_852)"/>
<path opacity="0.85" d="M306.178 25.4C268.514 37.2533 237.975 61.3508 222.379 95.8687C191.709 163.776 229.46 248.572 307.438 295.899C221.163 250.57 176.591 163.385 207.305 95.4779C224.334 57.7904 261.173 33.5628 306.178 25.4Z" fill="url(#paint2_linear_63_852)"/>
</g>
<path d="M415.522 265.028C481.62 265.028 535.204 211.473 535.204 145.409C535.204 79.3459 481.62 25.7908 415.522 25.7908C349.423 25.7908 295.839 79.3459 295.839 145.409C295.839 211.473 349.423 265.028 415.522 265.028Z" fill="url(#paint3_linear_63_852)"/>
<path d="M426.773 265.028C492.872 265.028 546.455 211.473 546.455 145.409C546.455 79.3459 492.872 25.7908 426.773 25.7908C360.674 25.7908 307.091 79.3459 307.091 145.409C307.091 211.473 360.674 265.028 426.773 265.028Z" fill="url(#paint4_linear_63_852)"/>
<path d="M426.773 259.036C489.561 259.036 540.46 208.164 540.46 145.409C540.46 82.6551 489.561 31.7826 426.773 31.7826C363.985 31.7826 313.086 82.6551 313.086 145.409C313.086 208.164 363.985 259.036 426.773 259.036Z" fill="url(#paint5_linear_63_852)"/>
<path d="M313.086 145.409C313.086 207.151 362.392 257.43 423.776 258.993C485.202 257.43 534.465 207.151 534.465 145.409C534.465 83.6679 485.159 33.389 423.776 31.8259C362.349 33.4324 313.086 83.6679 313.086 145.409Z" fill="white"/>
<path d="M313.086 145.409C313.086 173.328 323.164 198.901 339.889 218.7C359.873 240.714 388.718 254.521 420.778 254.521C476.775 254.521 522.91 212.405 529.209 158.131C525.603 165.99 520.955 173.501 515.221 180.579C480.511 223.303 419.475 231.205 378.944 198.293C338.412 165.339 333.677 104.031 368.387 61.3073C375.164 52.9275 382.984 45.937 391.455 40.2926C371.341 45.8936 353.53 57.0957 339.889 72.162C323.164 91.9175 313.086 117.491 313.086 145.409Z" fill="#C8E9F7"/>
<mask id="mask0_63_852" style="mask-type:alpha" maskUnits="userSpaceOnUse" x="402" y="36" width="128" height="110">
<path d="M418.128 135.119L402.706 37.7743C408.571 36.7757 414.609 36.2981 420.778 36.2981C481.075 36.2981 529.947 85.1442 529.947 145.409H420.778L418.128 135.119Z" fill="url(#paint6_linear_63_852)"/>
</mask>
<g mask="url(#mask0_63_852)">
<path d="M418.128 135.119L402.706 37.7743C408.571 36.7757 414.609 36.2981 420.778 36.2981C481.075 36.2981 529.947 85.1442 529.947 145.409H420.778L418.128 135.119Z" fill="url(#paint7_linear_63_852)"/>
<path d="M420.744 147.085L504.891 147.085L504.891 143.699L420.744 143.699L420.744 147.085Z" fill="#30358C"/>
<path d="M405.302 69.7933L418.171 145.868L423.396 144.985L410.528 68.9103L405.302 69.7933Z" fill="#30358C"/>
<path d="M512.506 146.999L525.495 146.999L525.495 143.873L512.506 143.873L512.506 146.999Z" fill="#30358C"/>
<path d="M501.023 100.955L512.272 94.4639L510.708 91.7566L499.459 98.2477L501.023 100.955Z" fill="#30358C"/>
<path d="M467.992 66.7736L474.487 55.531L471.778 53.9679L465.283 65.2105L467.992 66.7736Z" fill="#30358C"/>
<path d="M422.326 53.7111L422.326 40.7289L419.199 40.7289L419.199 53.7111L422.326 53.7111Z" fill="#30358C"/>
</g>
<path d="M314.128 268.936C445.462 268.936 551.929 267.186 551.929 265.028C551.929 262.87 445.462 261.12 314.128 261.12C182.794 261.12 76.3274 262.87 76.3274 265.028C76.3274 267.186 182.794 268.936 314.128 268.936Z" fill="#367AD1"/>
<path d="M298.228 219.525C285.674 219.525 276.421 229.729 277.637 242.277C278.81 254.825 289.975 265.028 302.529 265.028H314.172L309.871 219.525H298.228Z" fill="#333332"/>
<path d="M329.288 258.727C337.568 250.051 336.553 235.652 327.022 226.566C317.491 217.48 303.053 217.147 294.773 225.823C286.493 234.499 287.507 248.898 297.039 257.984C306.57 267.07 321.008 267.403 329.288 258.727Z" fill="#333332"/>
<path d="M323.096 252.827C328.395 247.274 327.737 238.05 321.626 232.225C315.515 226.399 306.265 226.177 300.966 231.73C295.667 237.282 296.325 246.506 302.436 252.332C308.547 258.158 317.797 258.379 323.096 252.827Z" fill="#575756"/>
<path d="M127.458 219.525C114.904 219.525 105.651 229.729 106.867 242.277C108.04 254.825 119.204 265.028 131.759 265.028H143.358L139.057 219.525H127.458Z" fill="#333332"/>
<path d="M158.476 258.728C166.755 250.052 165.741 235.653 156.21 226.567C146.679 217.481 132.24 217.148 123.961 225.824C115.681 234.499 116.695 248.899 126.226 257.985C135.757 267.071 150.196 267.404 158.476 258.728Z" fill="#333332"/>
<path d="M152.282 252.827C157.581 247.275 156.923 238.051 150.812 232.225C144.701 226.399 135.452 226.177 130.152 231.73C124.853 237.282 125.512 246.506 131.623 252.332C137.734 258.158 146.983 258.38 152.282 252.827Z" fill="#575756"/>
<path d="M164.775 219.525C152.22 219.525 142.967 229.729 144.184 242.277C145.357 254.825 156.521 265.028 169.076 265.028H180.718L176.374 219.525H164.775Z" fill="#333332"/>
<path d="M335.589 219.525C323.034 219.525 313.781 229.729 314.997 242.277C316.17 254.825 327.335 265.028 339.889 265.028H351.532L347.231 219.525H335.589Z" fill="#333332"/>
<path d="M86.9275 185.615C89.0127 182.967 90.4898 179.884 91.3586 176.584L114.557 83.8851C115.903 78.4577 120.682 74.8105 126.46 74.8105H247.662L263.519 242.147H90.6201C87.0578 242.147 83.8866 239.237 83.5391 235.677L80.1506 199.987C79.8465 196.687 80.7588 193.517 82.6702 191.086L86.9275 185.615Z" fill="url(#paint8_linear_63_852)"/>
<path d="M131.629 191.043L135.886 185.659C137.971 183.01 139.448 179.927 140.317 176.628L163.515 83.9285C164.862 78.5012 169.64 74.854 175.418 74.854H366.476C372.905 74.854 378.726 79.8037 379.812 86.2297L393.54 167.293L399.361 228.643C399.796 233.115 396.668 236.849 392.193 237.197L321.73 242.19H139.535C135.973 242.19 132.802 239.281 132.454 235.721L129.066 200.03C128.762 196.644 129.674 193.474 131.629 191.043Z" fill="url(#paint9_linear_63_852)"/>
<path d="M376.641 238.195L376.293 234.722C374.86 219.439 361.306 207.064 346.014 207.064C330.723 207.064 319.515 219.439 320.948 234.722L321.644 242.06L376.641 238.195Z" fill="#1E2859"/>
<path d="M206.219 242.103L205.523 234.765C204.09 219.482 190.536 207.108 175.245 207.108C159.953 207.108 148.745 219.482 150.179 234.765L150.874 242.103H206.219Z" fill="#1E2859"/>
<path d="M150.179 234.765L150.874 242.103H178.546L176.417 219.569H164.775C159.475 219.569 154.783 221.392 151.221 224.388C150.179 227.558 149.831 231.075 150.179 234.765Z" fill="#333332"/>
<path d="M195.796 258.735C204.075 250.059 203.061 235.66 193.53 226.573C183.999 217.487 169.56 217.154 161.281 225.83C153.001 234.506 154.015 248.905 163.546 257.991C173.077 267.078 187.516 267.41 195.796 258.735Z" fill="#575756"/>
<path d="M189.603 252.835C194.902 247.283 194.243 238.059 188.132 232.233C182.021 226.407 172.772 226.186 167.473 231.738C162.174 237.291 162.832 246.515 168.943 252.34C175.054 258.166 184.304 258.388 189.603 252.835Z" fill="#9D9D9C"/>
<path d="M171.726 234.288C171.552 235.417 171.552 236.632 171.769 237.891C172.725 243.623 177.764 248.312 183.542 248.79C184.715 248.876 185.844 248.833 186.93 248.572C187.843 248.399 188.581 249.484 188.016 250.179C186.061 252.567 183.107 254.043 179.632 254C173.116 253.956 167.338 248.616 166.773 242.103C166.469 238.543 167.772 235.373 170.075 233.246C170.683 232.725 171.856 233.376 171.726 234.288Z" fill="#EDEDED"/>
<path d="M138.71 231.118H132.02L131.412 224.345H138.058L138.71 231.118Z" fill="white"/>
<path d="M195.141 176.41H210.476L210.867 180.535H195.532L195.141 176.41ZM209.737 177.149H195.966L196.227 179.754H209.998L209.737 177.149Z" fill="#30358C"/>
<path d="M151.395 202.028H174.723V201.246H151.395C150.092 201.246 148.962 200.204 148.832 198.901L147.051 180.101L146.312 180.188L148.093 198.988C148.224 200.682 149.701 202.028 151.395 202.028Z" fill="#30358C"/>
<path d="M208 228.86H306.178V228.079H208.608C204.698 213.012 189.841 201.246 174.68 201.246V202.028C189.58 202.028 204.22 213.707 207.913 228.6L208 228.86Z" fill="#30358C"/>
<path d="M306.178 228.86H317.343V228.513C318.255 213.664 330.593 202.028 345.493 202.028C355.528 202.028 367.171 209.235 371.298 215.704L371.428 215.878H398.058V215.097H371.862C369.603 211.666 365.563 208.236 360.741 205.588C355.615 202.766 350.185 201.246 345.493 201.246C337.978 201.246 330.853 204.112 325.423 209.322C320.253 214.315 317.126 220.958 316.604 228.079H306.135V228.86H306.178Z" fill="#30358C"/>
<path d="M211.909 155.179L206.523 98.4304C206.305 96.3463 204.481 94.653 202.396 94.653H168.164C166.513 94.653 165.166 95.7384 164.819 97.3015L147.963 174.109C147.355 176.845 149.961 179.493 152.742 178.929L201.44 169.464C208.174 168.161 212.561 162.169 211.909 155.179Z" fill="#1E2859"/>
<path d="M320.949 234.765L321.644 242.103H349.316L347.187 219.569H335.545C330.245 219.569 325.553 221.392 321.991 224.388C320.992 227.558 320.601 231.075 320.949 234.765Z" fill="#3C3C3B"/>
<path d="M366.608 258.735C374.887 250.059 373.873 235.66 364.342 226.574C354.811 217.487 340.372 217.154 332.093 225.83C323.813 234.506 324.827 248.905 334.358 257.991C343.889 267.078 358.328 267.411 366.608 258.735Z" fill="#575756"/>
<path d="M360.416 252.833C365.715 247.281 365.056 238.057 358.945 232.231C352.834 226.405 343.585 226.184 338.286 231.736C332.987 237.289 333.645 246.513 339.756 252.339C345.867 258.164 355.117 258.386 360.416 252.833Z" fill="#9D9D9C"/>
<path d="M342.496 234.288C342.322 235.417 342.322 236.632 342.539 237.891C343.495 243.623 348.534 248.312 354.312 248.79C355.485 248.876 356.614 248.833 357.7 248.572C358.613 248.399 359.351 249.484 358.787 250.179C356.832 252.567 353.878 254.043 350.402 254C343.886 253.956 338.108 248.616 337.543 242.103C337.239 238.543 338.543 235.373 340.845 233.246C341.497 232.725 342.67 233.376 342.496 234.288Z" fill="#EDEDED"/>
<path d="M94.8771 179.016H135.582L156.695 94.653H115.99L94.8771 179.016Z" fill="white"/>
<path d="M124.027 231.118H132.02L131.412 224.345H123.418L124.027 231.118Z" fill="#C8E9F7"/>
<path d="M83.1043 231.118H91.0976L90.4459 224.345H82.4526L83.1043 231.118Z" fill="white"/>
<path d="M81.6273 215.487H88.0133C88.9255 215.487 89.5772 214.749 89.4903 213.881L88.578 204.155C88.4042 202.375 88.1436 200.595 87.7092 198.858L86.4493 193.387C86.1452 192.041 84.8854 191.042 83.5387 191.042H82.6699C80.715 193.517 79.8462 196.687 80.1503 199.943L81.6273 215.487Z" fill="white"/>
<path d="M210.883 94.6121L210.105 94.6857L222.774 228.518L223.553 228.445L210.883 94.6121Z" fill="#30358C"/>
<path d="M381.897 94.2622H110.864V95.0437H381.897V94.2622Z" fill="#30358C"/>
<path d="M147.627 174.039L146.308 180.062L147.072 180.23L148.391 174.207L147.627 174.039Z" fill="#30358C"/>
<path d="M136.277 192.996L135.973 195.645C135.756 197.512 135.712 199.422 135.886 201.376L137.059 213.881C137.146 214.793 136.494 215.487 135.582 215.487H130.543L129.066 199.943C128.762 196.644 129.674 193.474 131.585 191.042H134.496C135.539 191.042 136.408 191.954 136.277 192.996Z" fill="white"/>
<path d="M89.6206 215.487H122.55L121.246 201.506H88.2739L89.6206 215.487Z" fill="#1E2859"/>
<path d="M123.245 198.076L126.329 192.909C127.024 191.737 128.284 191.042 129.717 191.042H131.629C129.674 193.517 128.805 196.687 129.109 199.943L130.586 215.487H124.2C123.288 215.487 122.506 214.749 122.419 213.881L121.637 205.631C121.377 202.939 121.941 200.291 123.245 198.076Z" fill="#C8E9F7"/>
<path d="M393.192 162.213L393.496 167.206L398.058 215.487H388.37L383.592 164.904C383.461 163.428 384.547 162.213 386.024 162.213H393.192Z" fill="#E87F79"/>
<path d="M391.064 192.736H395.886L398.058 215.487H393.192L391.064 192.736Z" fill="#FFAFA3"/>
<path d="M385.807 192.736L386.546 192.649L383.896 164.861C383.852 164.253 384.026 163.689 384.417 163.255C384.808 162.82 385.373 162.603 385.981 162.603H393.149V161.822H385.981C385.156 161.822 384.417 162.126 383.852 162.734C383.331 163.341 383.07 164.123 383.157 164.948L385.807 192.736Z" fill="white"/>
<path d="M103.044 179.016H135.582L152.611 110.892H120.725C119.074 110.892 117.728 111.977 117.38 113.54L103.044 179.016Z" fill="#A0D9F2"/>
<path d="M152.742 178.929L163.993 176.758C164.471 175.108 164.688 173.284 164.514 171.417L159.692 120.617L147.963 174.066C147.398 176.845 150.005 179.493 152.742 178.929Z" fill="url(#paint10_linear_63_852)"/>
<path d="M152.003 179.406C152.264 179.406 152.524 179.363 152.785 179.319L201.483 169.854L201.353 169.116L152.655 178.581C151.482 178.798 150.222 178.408 149.353 177.496C148.484 176.584 148.093 175.368 148.354 174.239L165.166 97.4317C165.47 96.0423 166.686 95.0871 168.163 95.0871V94.3055C166.339 94.3055 164.818 95.4778 164.427 97.258L147.615 174.066C147.311 175.455 147.746 176.931 148.832 178.017C149.701 178.885 150.874 179.406 152.003 179.406Z" fill="#30358C"/>
<path d="M94.8771 179.406H131.759C134.235 179.406 136.277 177.843 136.885 175.499L157.086 94.7397L156.347 94.566L136.147 175.325C135.626 177.322 133.888 178.668 131.759 178.668H94.8771V179.406Z" fill="white"/>
<path d="M165.036 180.144H158.954C158.042 180.144 157.26 179.406 157.173 178.538L155.131 156.829C155.044 155.917 155.696 155.222 156.608 155.222H162.69C163.602 155.222 164.384 155.96 164.471 156.829L166.513 178.538C166.6 179.406 165.948 180.144 165.036 180.144Z" fill="#C8E9F7"/>
<path d="M121.246 201.116H88.2739V201.897H121.246V201.116Z" fill="white"/>
<path d="M446.713 301.804C446.713 303.367 435.114 304.626 420.778 304.626C406.442 304.626 394.843 303.367 394.843 301.804C394.843 300.241 406.442 298.982 420.778 298.982C435.114 298.982 446.713 300.241 446.713 301.804Z" fill="#1E2859"/>
<path d="M437.764 279.617C441.152 275.709 443.194 270.586 443.194 265.028C443.194 252.654 433.159 242.624 420.778 242.624C408.397 242.624 398.362 252.654 398.362 265.028C398.362 270.629 400.404 275.709 403.792 279.617L420.778 301.804L437.764 279.617Z" fill="url(#paint11_linear_63_852)"/>
<path d="M420.778 277.924C427.904 277.924 433.68 272.15 433.68 265.028C433.68 257.906 427.904 252.133 420.778 252.133C413.652 252.133 407.876 257.906 407.876 265.028C407.876 272.15 413.652 277.924 420.778 277.924Z" fill="white"/>
<path d="M32.4076 305.321C50.3059 305.321 64.8153 303.746 64.8153 301.804C64.8153 299.861 50.3059 298.287 32.4076 298.287C14.5094 298.287 0 299.861 0 301.804C0 303.746 14.5094 305.321 32.4076 305.321Z" fill="#1E2859"/>
<path d="M53.6507 274.103C57.8645 269.196 60.4711 262.814 60.4711 255.823C60.4711 240.366 47.9163 227.818 32.451 227.818C16.9857 227.818 4.43103 240.366 4.43103 255.823C4.43103 262.814 6.9941 269.196 11.2514 274.103L32.451 301.804L53.6507 274.103Z" fill="url(#paint12_linear_63_852)"/>
<path d="M38.5946 270.756C46.8406 267.343 50.7563 257.894 47.3406 249.652C43.925 241.411 34.4714 237.497 26.2255 240.911C17.9796 244.325 14.0639 253.774 17.4795 262.015C20.8951 270.257 30.3487 274.17 38.5946 270.756Z" fill="white"/>
<path d="M422.12 327.439C426.643 326.705 429.715 322.446 428.981 317.925C428.247 313.404 423.985 310.333 419.461 311.067C414.938 311.801 411.866 316.061 412.6 320.582C413.334 325.103 417.597 328.173 422.12 327.439Z" fill="#FF9B2B"/>
<path d="M33.7451 327.45C38.2685 326.716 41.3403 322.456 40.6062 317.935C39.8721 313.414 35.61 310.344 31.0866 311.077C26.5632 311.811 23.4914 316.071 24.2255 320.592C24.9596 325.113 29.2217 328.183 33.7451 327.45Z" fill="#FF9B2B"/>
<path d="M396.537 317.348H420.778V321.907H398.492L396.537 317.348Z" fill="#FF9B2B"/>
<path d="M367.258 317.348H381.898L383.852 321.907H369.213L367.258 317.348Z" fill="#FF9B2B"/>
<path d="M104.347 317.348C105.086 317.348 106.389 317.217 106.997 316.262C107.562 315.394 107.519 314.091 106.867 312.572L99.3951 295.508C98.1353 292.599 98.1787 289.69 99.6123 287.519C100.959 285.478 103.261 284.349 106.085 284.349H131.281C136.668 284.349 142.663 288.431 144.922 293.685L164.254 337.798C165.818 341.358 170.162 344.398 173.724 344.398H220.641C221.38 344.398 222.683 344.267 223.291 343.312C223.856 342.444 223.813 341.141 223.161 339.622L210.476 310.574C209.216 307.665 209.26 304.756 210.693 302.585C212.04 300.545 214.342 299.416 217.166 299.416H272.077C277.463 299.416 283.458 303.497 285.717 308.751L286.586 310.748C288.15 314.308 292.494 317.348 296.056 317.348H323.295L325.293 321.907H296.056C290.67 321.907 284.675 317.825 282.416 312.572L281.547 310.574C279.983 307.014 275.639 303.975 272.077 303.975H217.166C216.428 303.975 215.124 304.105 214.516 305.06C213.951 305.929 213.995 307.231 214.646 308.751L227.331 337.798C228.591 340.707 228.548 343.616 227.114 345.787C225.768 347.828 223.465 348.957 220.641 348.957H173.724C168.337 348.957 162.342 344.875 160.083 339.622L140.839 295.508C139.275 291.948 134.931 288.908 131.368 288.908H106.172C105.434 288.908 104.13 289.039 103.522 289.994C102.957 290.862 103.001 292.165 103.652 293.685L111.124 310.748C112.384 313.657 112.341 316.566 110.907 318.737C109.56 320.778 107.258 321.907 104.434 321.907H32.4077V317.348H104.347Z" fill="#FF9B2B"/>
<path d="M337.978 317.348H352.618L354.573 321.907H339.933L337.978 317.348Z" fill="#FF9B2B"/>
<path d="M172.855 140.894C173.55 145.149 177.503 156.221 178.068 159.694C178.633 163.124 178.155 169.16 178.459 170.419C178.676 171.244 179.589 171.548 180.11 171.591C181.891 171.678 193.056 170.636 198.399 170.115L201.396 169.55C201.961 169.42 202.526 169.29 203.047 169.116C203.351 168.682 203.351 168.074 203.178 167.249C202.656 164.991 202.265 163.472 201.787 161.127C201.266 158.826 200.788 156.959 200.701 153.876C200.571 150.663 200.788 141.719 199.659 138.202C199.224 136.856 198.529 135.119 197.53 134.164C196.357 132.992 193.838 132.818 192.317 132.731C188.972 132.514 185.236 132.948 181.978 133.643C180.371 133.99 175.505 135.727 173.985 136.595C172.464 137.377 172.508 138.723 172.855 140.894Z" fill="white"/>
<path d="M193.751 169.029C194.098 169.594 194.489 170.028 194.967 170.375C196.27 170.245 197.443 170.158 198.399 170.028L201.396 169.463C201.961 169.333 202.526 169.203 203.047 169.029C203.351 168.595 203.351 167.987 203.178 167.162C202.656 164.905 202.265 163.385 201.787 161.04C201.266 158.739 200.788 156.872 200.701 153.789C200.658 152.574 200.658 150.489 200.615 148.188C197.53 147.103 194.663 149.534 195.315 152.878C196.183 157.436 195.011 161.692 193.794 163.124C192.491 164.601 191.883 165.99 193.751 169.029Z" fill="#DADADA"/>
<path d="M178.198 117.969C178.72 115.754 181.066 114.365 184.237 114.148C186.757 114.018 189.102 115.407 189.971 117.318C190.797 119.141 191.057 122.18 188.885 126.739C188.364 127.825 189.406 130.951 189.58 131.472C190.015 132.601 190.232 132.601 190.449 133.209C191.274 135.423 187.147 139.027 183.672 139.201C180.414 139.331 180.544 135.423 180.718 134.511C180.892 133.817 181.5 133.686 181.804 133.469C182.369 133.079 182.412 132.775 182.412 132.08C182.412 131.95 182.412 131.776 182.369 131.602C182.282 130.864 182.195 128.91 181.717 128.52C181.326 128.172 181.109 128.042 180.675 127.695C180.284 127.391 179.198 126.349 179.024 125.567C178.763 124.482 178.85 122.571 178.72 121.442C178.676 120.096 177.894 119.358 178.198 117.969Z" fill="#FEC1B5"/>
<path d="M180.284 127.304C180.371 127.434 180.544 127.608 180.675 127.738C181.109 128.085 181.326 128.216 181.717 128.563C181.978 128.78 182.065 129.345 182.152 129.866C182.325 129.909 183.021 129.952 183.498 129.822C184.845 129.475 185.757 128.52 186.279 127.521C186.713 126.739 187.148 124.872 186.93 124.569C186.8 124.395 185.931 125.697 185.801 125.914C184.237 127.912 181.804 128.129 180.284 127.304Z" fill="#E8988C"/>
<path d="M183.933 112.585C186.93 112.368 190.232 113.627 190.71 115.624C190.884 116.362 190.797 117.144 191.275 117.621C192.578 119.011 191.492 121.963 191.057 123.049C190.493 124.568 189.059 127.695 188.581 127.478C188.277 127.347 187.799 126.305 187.843 125.828C187.93 124.829 187.93 123.787 188.103 122.832C188.234 122.137 188.19 122.137 187.886 121.529C187.756 121.79 187.495 122.528 187.495 122.528L186.539 122.05C185.757 120.791 185.323 118.881 185.497 117.014C185.367 116.753 184.976 116.493 184.758 116.406C183.151 115.798 181.848 112.759 183.933 112.585Z" fill="#1E2859"/>
<path d="M187.539 122.094C187.278 123.092 187.582 124.048 188.19 124.221C188.798 124.395 189.493 123.7 189.754 122.702C190.015 121.703 189.711 120.748 189.102 120.574C188.451 120.4 187.756 121.095 187.539 122.094Z" fill="#FEC1B5"/>
<path d="M187.886 112.498C186.018 111.934 182.847 111.586 181.37 112.541C179.371 113.844 178.59 115.103 178.155 116.71C178.068 117.1 178.285 117.404 178.503 117.274C179.936 116.579 181.674 116.449 183.412 116.797C184.715 117.057 185.757 117.621 186.887 118.36C188.668 119.488 189.711 120.4 190.927 121.92C191.361 122.441 191.709 121.703 191.796 121.312C192.621 117.839 192.578 113.974 187.886 112.498Z" fill="#FF9B2B"/>
<path d="M186.583 117.882C186.452 117.187 185.54 115.581 182.977 114.756C181.978 114.452 180.371 113.54 179.328 113.149C178.807 112.976 178.72 113.062 178.807 113.106C178.98 113.149 179.328 113.149 179.936 113.497C180.935 114.061 181.413 114.929 182.021 115.364C182.716 115.885 183.325 116.319 184.063 116.71C184.758 117.1 186.018 117.621 186.409 117.839C186.539 117.969 186.626 118.012 186.583 117.882Z" fill="#FFB35C"/>
<path d="M186.496 117.882C185.019 117.014 182.803 116.362 181.153 114.452C179.589 112.585 177.026 112.672 175.636 113.887C175.027 114.409 174.072 115.668 174.506 116.84C174.897 117.882 176.591 118.446 177.504 118.577C177.938 118.62 178.068 118.577 178.242 118.36C178.546 118.012 179.024 117.448 179.893 117.1C181.153 116.579 183.412 116.84 184.628 117.274C185.019 117.404 185.931 117.839 186.322 118.056C186.539 118.143 186.713 118.012 186.496 117.882Z" fill="#E68922"/>
<path d="M179.762 124.699C179.806 124.872 180.414 125.133 181.153 125.003C181.891 124.872 182.369 124.308 182.325 124.178C182.282 124.047 181.761 124.308 181.022 124.438C180.24 124.525 179.719 124.525 179.762 124.699Z" fill="white"/>
<path d="M164.471 156.785C164.384 155.873 163.602 155.179 162.69 155.179H157.39C159.866 152.009 164.905 144.932 168.077 141.502C170.77 138.593 172.986 135.64 176.852 136.335C178.546 136.639 179.111 139.505 178.981 141.328C178.85 142.891 178.112 145.54 177.026 146.799C174.94 149.274 168.989 154.875 164.645 158.739L164.471 156.785Z" fill="white"/>
<path d="M151.091 159.955C152.438 159.434 154.001 158.479 155.218 157.48L155.913 164.731C154.001 165.469 152.003 165.947 150.092 166.164C149.961 166.164 149.831 166.207 149.701 166.207L151.091 159.955Z" fill="white"/>
<path d="M175.809 174.457L201.44 169.463C202.048 169.333 202.613 169.203 203.178 169.029C203.004 168.856 202.787 168.725 202.569 168.552C201.006 167.596 198.833 167.466 197.4 166.294C196.053 165.208 195.054 163.819 194.663 162.169C193.838 158.739 193.012 152.27 192.665 148.536C192.404 145.757 192.187 141.198 193.49 137.551C194.142 135.771 195.662 133.904 196.183 133.382C196.531 133.035 196.531 132.948 196.227 132.861C195.792 132.775 194.967 132.644 194.533 132.601C194.055 132.514 193.881 132.775 193.534 133.122C192.621 134.034 191.275 136.205 190.71 138.289C190.015 141.024 189.58 144.194 189.797 147.754C187.452 147.928 183.368 148.275 181.066 148.449C179.676 143.065 178.937 138.202 179.458 134.815C179.545 134.294 179.589 134.034 179.285 134.164C178.894 134.294 178.068 134.555 177.59 134.728C177.156 134.902 177.026 135.553 176.982 135.771C176.287 138.332 177.894 146.408 178.546 149.665C179.067 152.356 179.676 158.348 179.806 160.563C179.893 162.56 180.153 164.514 179.589 166.468C179.328 167.336 178.589 168.682 178.025 169.29C177.069 170.332 176.07 170.592 175.94 171.808C175.896 172.242 175.853 173.284 175.809 174.457Z" fill="#FF9B2B"/>
<path d="M208.955 164.036C208.478 159.303 205.263 146.017 204.481 142.327C204.046 140.243 203.221 136.161 200.571 134.685C199.615 134.121 197.66 133.426 197.096 133.296C196.401 133.122 196.14 133.556 196.097 133.643C195.141 134.772 194.576 136.161 193.968 137.985C193.229 140.156 193.881 143.89 194.663 146.973C195.792 151.445 197.791 157.306 198.573 160.085C199.615 163.819 196.401 164.21 195.358 164.427C191.926 165.122 177.286 167.336 175.158 167.77C172.812 168.248 172.638 169.507 172.725 170.592C172.768 171.2 173.637 171.851 174.897 171.851C178.416 171.851 195.315 171.982 200.745 171.851C205.089 171.634 209.737 171.33 208.955 164.036Z" fill="white"/>
<path d="M165.557 168.291C166.209 167.77 166.86 167.249 167.208 166.989C167.599 166.685 168.25 166.294 168.815 166.294C169.945 166.294 171.031 166.381 171.726 166.468C172.508 166.511 173.463 167.466 174.332 168.031C175.201 168.595 175.896 169.767 175.201 170.853C174.854 171.417 174.028 171.634 173.29 171.504C172.334 171.331 170.422 170.853 169.336 170.506C168.337 170.202 167.686 170.288 166.773 170.723C166.426 170.896 166.078 171.027 165.818 171.113L165.557 168.291Z" fill="#FEC1B5"/>
</g>
<defs>
<linearGradient id="paint0_linear_63_852" x1="-2.46628" y1="194.71" x2="565.895" y2="270.075" gradientUnits="userSpaceOnUse">
<stop stop-color="#76EBD8"/>
<stop offset="1" stop-color="#C8E9F7"/>
</linearGradient>
<linearGradient id="paint1_linear_63_852" x1="10.504" y1="96.8973" x2="578.865" y2="172.262" gradientUnits="userSpaceOnUse">
<stop stop-color="#76EBD8"/>
<stop offset="1" stop-color="#C8E9F7"/>
</linearGradient>
<linearGradient id="paint2_linear_63_852" x1="7.30914" y1="120.985" x2="575.672" y2="196.35" gradientUnits="userSpaceOnUse">
<stop stop-color="#76EBD8"/>
<stop offset="1" stop-color="#C8E9F7"/>
</linearGradient>
<linearGradient id="paint3_linear_63_852" x1="355.684" y1="249.022" x2="475.279" y2="41.7677" gradientUnits="userSpaceOnUse">
<stop stop-color="#30358C"/>
<stop offset="1" stop-color="#367AD1"/>
</linearGradient>
<linearGradient id="paint4_linear_63_852" x1="546.423" y1="145.422" x2="307.082" y2="145.422" gradientUnits="userSpaceOnUse">
<stop stop-color="#7AC9EB"/>
<stop offset="0.2201" stop-color="#76C5EA"/>
<stop offset="0.4481" stop-color="#6CB8E6"/>
<stop offset="0.6798" stop-color="#5AA4DF"/>
<stop offset="0.9126" stop-color="#4187D5"/>
<stop offset="1" stop-color="#367AD1"/>
</linearGradient>
<linearGradient id="paint5_linear_63_852" x1="369.9" y1="243.842" x2="483.515" y2="46.9505" gradientUnits="userSpaceOnUse">
<stop stop-color="#30358C"/>
<stop offset="1" stop-color="#367AD1"/>
</linearGradient>
<linearGradient id="paint6_linear_63_852" x1="395.705" y1="62.7979" x2="510.962" y2="140.386" gradientUnits="userSpaceOnUse">
<stop stop-color="white"/>
<stop offset="1"/>
</linearGradient>
<linearGradient id="paint7_linear_63_852" x1="395.705" y1="62.7979" x2="510.962" y2="140.386" gradientUnits="userSpaceOnUse">
<stop stop-color="#76EBD8"/>
<stop offset="1" stop-color="white"/>
</linearGradient>
<linearGradient id="paint8_linear_63_852" x1="173.781" y1="242.085" x2="173.781" y2="74.7712" gradientUnits="userSpaceOnUse">
<stop stop-color="#30358C"/>
<stop offset="1" stop-color="#367AD1"/>
</linearGradient>
<linearGradient id="paint9_linear_63_852" x1="331.373" y1="53.7903" x2="207.487" y2="280.208" gradientUnits="userSpaceOnUse">
<stop stop-color="#7AC9EB"/>
<stop offset="0.2201" stop-color="#76C5EA"/>
<stop offset="0.4481" stop-color="#6CB8E6"/>
<stop offset="0.6798" stop-color="#5AA4DF"/>
<stop offset="0.9126" stop-color="#4187D5"/>
<stop offset="1" stop-color="#367AD1"/>
</linearGradient>
<linearGradient id="paint10_linear_63_852" x1="137.853" y1="254.153" x2="178.893" y2="122.76" gradientUnits="userSpaceOnUse">
<stop stop-color="#30358C"/>
<stop offset="0.0214593" stop-color="#30388F"/>
<stop offset="0.2711" stop-color="#3355AC"/>
<stop offset="0.5195" stop-color="#3569C0"/>
<stop offset="0.764" stop-color="#3676CD"/>
<stop offset="1" stop-color="#367AD1"/>
</linearGradient>
<linearGradient id="paint11_linear_63_852" x1="436.713" y1="292.615" x2="379.448" y2="193.376" gradientUnits="userSpaceOnUse">
<stop stop-color="#EC7B35"/>
<stop offset="1" stop-color="#FA9C55"/>
</linearGradient>
<linearGradient id="paint12_linear_63_852" x1="52.3497" y1="290.315" x2="-19.2317" y2="166.266" gradientUnits="userSpaceOnUse">
<stop stop-color="#EC7B35"/>
<stop offset="1" stop-color="#FA9C55"/>
</linearGradient>
<clipPath id="clip0_63_852">
<rect width="571" height="349" fill="white"/>
</clipPath>
</defs>
</svg>
