<svg width="945" height="535" viewBox="0 0 945 535" fill="none" xmlns="http://www.w3.org/2000/svg">
<path d="M785.514 152.047C713.146 165.353 681.889 138.929 619.5 145.959C558.053 152.863 531.879 171.441 474.7 175.333C414.32 179.413 377.853 154.809 296.196 150.666C227.279 147.151 177.632 160.018 106.205 142.883C31.263 124.87 -22.3386 70.3265 -122.575 66.9999V448.676H944.938V119.472C863.029 103.278 838.739 142.256 785.514 152.047Z" fill="url(#paint0_linear_63_711)"/>
<path d="M266.632 197.552V244.249H278.809V224.729H330.465V339.59H214.035V196.987L230.166 192.782L266.632 197.552Z" fill="#BCE5F7"/>
<path d="M-51.902 172.257H7.28571V323.271H-51.902V172.257Z" fill="#BCE5F7"/>
<path d="M301.153 289.126H340.821L352.872 270.799H313.204L301.153 289.126Z" fill="#77C4E6"/>
<path d="M301.153 289.126H340.821V339.59H301.153V289.126Z" fill="#F2FBFC"/>
<path d="M352.872 270.799L364.923 289.126V339.59H352.872H340.821V289.126L352.872 270.799Z" fill="#BCE5F7"/>
<path d="M214.035 339.59H230.166V192.782L214.035 196.987V339.59Z" fill="#8ACDE6"/>
<path d="M278.808 227.616H290.232V244.249H278.808V227.616Z" fill="#8ACDE6"/>
<path d="M192.444 270.799H230.166L241.589 253.413H203.867L192.444 270.799Z" fill="#367AD1"/>
<path d="M192.444 270.799H230.166V314.17H192.444V270.799Z" fill="#F2FBFC"/>
<path d="M98.4906 323.266H88.6365L88.6365 208.782H98.4906L98.4906 323.266Z" fill="#BCE5F7"/>
<path d="M98.5465 194.853H172.547V323.208H98.5465V194.853Z" fill="#BCE5F7"/>
<path d="M88.6295 117.777L45.3214 112.128L29.4418 117.275V323.208H88.6295V117.777Z" fill="#BCE5F7"/>
<path d="M29.4419 323.208H45.3215V112.128L29.4419 117.275V323.208Z" fill="#8ACDE6"/>
<path d="M88.6295 239.479H57.9373L44.6938 221.905H75.386L88.6295 239.479Z" fill="#367AD1"/>
<path d="M-122.576 448.676V300.424C-96.3398 298.855 -63.7019 314.421 -25.9799 314.421C17.8931 314.421 38.7939 297.349 82.6669 285.361C120.138 275.067 158.801 276.385 198.343 286.867C234.371 296.407 274.603 313.73 310.756 324.965C348.29 336.64 387.644 336.64 426.056 331.305C464.531 325.97 492.274 317.622 532.255 317.622C561.19 317.622 583.848 321.388 602.552 326.723C621.068 331.995 638.893 339.841 657.535 344.611C695.571 354.34 730.029 351.076 768.378 345.678C807.607 340.155 843.132 328.229 890.52 328.669C914.308 328.857 936.778 333.313 944.812 335.636V448.676H-122.576Z" fill="url(#paint1_linear_63_711)"/>
<path d="M944.937 493.051V534.288C916.316 535.669 869.744 525.375 846.458 521.044C823.047 516.651 799.071 514.768 775.157 515.647C750.867 516.525 726.765 519.35 702.537 520.542C678.185 521.735 653.643 520.731 629.541 517.467C605.879 514.266 582.342 509.935 558.303 509.621C534.013 509.307 509.911 512.697 485.746 514.391C461.456 516.086 436.977 515.207 412.938 511.316C401.138 509.433 389.401 506.922 377.413 506.106C365.299 505.29 353.311 506.734 341.26 507.738C329.649 508.742 317.911 508.805 306.363 506.985C290.295 504.474 273.16 493.616 272.155 492.988H944.937V493.051Z" fill="#367AD1"/>
<path d="M19.1484 208.724H57.9374V344.737H19.1484V208.724Z" fill="#F2FBFC"/>
<path d="M-4.57702 208.724H19.1483V344.737H-4.57702V208.724Z" fill="#BCE5F7"/>
<path d="M-122.576 341.912H57.9374V344.799H-122.576V341.912Z" fill="white"/>
<path d="M-122.576 325.028C-109.897 327.1 -103.307 352.206 -101.487 359.549C-99.2271 368.525 -94.708 398.652 -84.4772 399.593C-77.8869 400.221 -74.121 392.313 -65.5221 393.945C-52.5925 396.392 -51.9648 416.477 -43.9936 434.366C-40.4787 442.274 -32.5075 453.132 -25.8544 451.814C-18.6364 450.371 -16.1886 443.09 -8.40566 442.086C0.820843 440.956 14.1899 454.89 24.0441 467.819H-122.388C-122.45 467.694 -122.576 467.568 -122.639 467.506V325.028H-122.576Z" fill="#1E2859"/>
<path d="M38.731 344.799C36.9736 342.854 35.53 339.213 37.664 336.64C39.4842 334.443 45.3214 334.882 47.3927 332.748C49.1501 330.865 46.8278 325.719 48.8991 322.58C50.7193 319.819 55.6149 320.697 63.084 324.401C67.0382 326.346 69.7999 328.48 73.3148 327.664C75.6999 327.162 75.6371 324.401 78.0222 323.271C82.353 321.137 88.6923 326.848 92.2699 324.275C95.8475 321.764 92.9603 314.986 96.789 312.161C101.308 308.898 108.84 314.17 112.041 317.559C116.184 321.89 117.815 326.911 121.895 330.803C126.979 335.636 130.117 329.547 135.39 331.116C138.277 331.995 140.034 337.016 143.235 336.326C145.558 335.824 145.872 331.744 147.378 330.301C149.512 328.355 150.893 328.606 153.592 329.798C156.855 331.242 166.898 339.276 167.086 344.737H38.731V344.799Z" fill="#367AD1"/>
<path d="M-23.4066 344.799C-24.4736 341.222 -24.9129 332.999 -21.0842 330.677C-16.5023 327.978 -8.53115 336.577 -2.44291 337.142C3.01767 337.707 6.09322 333.69 11.491 335.259C14.5038 336.138 21.2824 338.774 26.8057 344.737H-23.4066V344.799Z" fill="#367AD1"/>
<path d="M19.0953 211.64H-4.63V208.753H19.0953V211.64Z" fill="#F2FBFC"/>
<path d="M226.274 448.676C227.592 440.768 232.174 428.779 248.242 427.963C262.113 427.273 286.403 437.127 295.63 433.863C305.107 430.537 302.722 419.49 311.823 413.025C319.669 407.502 341.888 415.599 344.524 411.205C346.783 407.376 338.749 399.405 339.565 393.756C341.511 379.446 361.91 387.354 371.325 392.564C377.476 395.953 384.317 400.661 391.535 401.288C399.13 401.916 405.846 397.334 409.863 395.702C425.742 389.174 440.994 398.401 452.92 405.556C468.548 414.971 485.683 421.687 504.638 419.929C514.492 418.988 534.012 415.975 545.938 417.544C568.973 420.494 589.56 438.947 596.213 448.676H226.274Z" fill="white"/>
<path d="M49.9661 386.915C62.4564 384.279 105.953 376.119 131.31 371.475C156.981 366.83 194.452 359.298 205.059 356.474C227.655 350.385 242.53 346.557 242.53 341.096C242.53 335.761 228.91 331.556 225.081 330.112C216.483 326.786 207.695 324.15 198.846 321.576C183.029 316.994 156.542 310.09 140.725 305.508C134.009 303.563 121.77 299.546 114.238 295.78C107.585 292.453 105.262 289.503 105.262 287.118C105.262 283.101 110.911 281.281 114.866 280.339C118.004 279.586 125.347 278.456 131.436 277.954C134.009 278.205 136.206 278.456 138.842 278.896C133.632 279.398 127.23 280.528 123.527 281.155C119.887 281.783 109.97 283.666 109.97 286.804C109.97 290.382 123.213 294.964 129.678 297.223C136.206 299.483 146.813 302.182 161.437 306.01C179.702 310.781 201.105 316.304 206.628 317.873C219.056 321.451 253.828 329.736 253.828 341.159C253.828 350.888 239.266 356.097 221.504 361.558C202.863 367.269 184.472 371.475 164.701 375.366C143.549 379.446 119.698 383.4 92.0189 388.61C78.2733 391.183 24.6717 399.468 24.4834 410.64C24.2951 421.059 75.7 431.541 99.3625 436.374C126.226 441.835 169.346 448.739 226.964 448.739C369.191 448.739 830.893 448.739 945 448.739V467.882H267.762C159.994 467.882 102.124 452.944 80.0308 448.739C77.4574 448.237 75.2606 447.797 73.3149 447.358C49.7779 442.086 5.27722 427.336 5.27722 409.887C5.27722 398.087 33.4589 390.367 49.9661 386.915ZM17.0143 410.326C17.0143 410.264 17.0143 410.264 17.0143 410.201C17.0143 410.201 17.0143 410.264 17.0143 410.326Z" fill="white"/>
<path d="M330.392 227.615H290.222V224.728H330.392V227.615Z" fill="#F2FBFC"/>
<path d="M716.722 92.8592C720.677 89.1561 740.699 90.0975 759.215 83.9465C775.283 78.6115 788.714 66.1212 801.267 59.5936C826.185 46.6639 844.387 51.999 865.414 44.5299C883.804 39.0066 895.918 22.311 911.232 10.9504C920.71 3.92073 933.514 -0.0334908 944.937 0.217571V75.9126C930.438 86.2061 912.613 93.2358 897.047 95.1815C876.335 97.7549 842.567 93.3614 821.792 97.2528C792.857 102.588 767.374 115.392 740.887 111.94C730.405 110.496 708.375 100.768 716.722 92.8592Z" fill="#F2FBFC"/>
<path d="M609.457 122.798C616.737 105.538 661.552 81.4987 682.39 88.905C705.299 97.0017 687.85 120.602 670.653 118.53C636.634 114.388 631.299 123.363 618.62 128.698C612.783 131.146 606.695 129.389 609.457 122.798Z" fill="#F2FBFC"/>
<path d="M280.566 130.267C260.669 133.594 243.032 125.121 222.131 122.108C207.131 119.974 178.07 125.874 163.509 121.92C134.762 114.199 138.277 85.4529 102.187 79.6157C67.2266 73.9041 48.8991 63.7361 57.6235 49.1118C65.783 35.4917 134.26 34.9896 163.76 62.4808C173.174 71.2679 181.522 81.9381 194.577 85.3902C209.39 90.1603 223.324 85.7667 240.584 94.3656C249.309 98.6964 258.096 107.295 269.457 110.685C282.637 114.576 297.45 113.258 300.023 115.831C305.547 121.229 288.412 128.949 280.566 130.267Z" fill="#F2FBFC"/>
<path d="M-11.1045 60.5978C-16.8162 50.7437 14.6292 39.3204 27.9983 47.5426C43.8151 57.2713 33.8982 72.8998 19.0229 66.9999C-2.00354 58.6521 -8.5939 64.8031 -11.1045 60.5978Z" fill="#F2FBFC"/>
<path d="M239.392 275.193H243.723V283.478H239.392V275.193Z" fill="#7AC3DE"/>
<path d="M239.392 289.942H243.723V298.227H239.392V289.942Z" fill="#7AC3DE"/>
<path d="M860.957 448.676C858.76 442.525 860.894 429.595 865.225 423.256C871.439 414.092 883.553 412.209 892.403 416.979C905.458 424.072 895.604 396.895 903.826 392.878C912.613 388.672 920.145 402.292 924.852 398.401C929.748 394.321 922.969 378.128 926.359 367.081C929.811 355.658 938.786 349.005 944.937 350.511V448.739H860.957V448.676Z" fill="#1E2859"/>
<path d="M350.675 296.909H355.006V305.194H350.675V296.909Z" fill="#7AC3DE"/>
<path d="M850.475 151.357C873.698 144.515 895.98 152.11 921.275 152.675C927.677 152.8 936.024 151.545 944.874 149.913V191.526C931.945 191.84 919.141 194.163 903.198 188.514C892.214 184.622 880.477 175.584 866.418 173.199C850.161 170.437 832.65 174.14 829.198 171.441C822.043 165.73 841.374 154.055 850.475 151.357Z" fill="#F2FBFC"/>
<path d="M135.515 270.799C112.914 270.799 94.5923 268.804 94.5923 266.343C94.5923 263.881 112.914 261.886 135.515 261.886C158.116 261.886 176.438 263.881 176.438 266.343C176.438 268.804 158.116 270.799 135.515 270.799Z" fill="#1E2859"/>
<path d="M162.316 231.32C167.651 225.106 170.915 217.072 170.915 208.285C170.915 188.765 155.098 172.948 135.578 172.948C116.058 172.948 100.241 188.765 100.241 208.285C100.241 217.072 103.505 225.169 108.84 231.32L135.641 266.28L162.316 231.32Z" fill="url(#paint2_linear_63_711)"/>
<path d="M112.721 217.715C107.507 205.128 113.484 190.699 126.07 185.485C138.657 180.272 153.086 186.249 158.3 198.835C163.513 211.421 157.536 225.851 144.95 231.064C132.364 236.278 117.934 230.301 112.721 217.715Z" fill="white"/>
<path d="M130.557 220.147H148.32V204.205L139.47 193.221L130.557 204.205V220.147Z" fill="#367AD1"/>
<path d="M122.146 204.205H130.557V220.147H122.146V204.205Z" fill="#1E2859"/>
<path d="M137.712 209.979H141.164V218.641H137.712V209.979Z" fill="white"/>
<path d="M742.393 438.445C757.457 438.445 770.826 450.684 772.207 465.748C773.588 480.812 762.478 493.051 747.415 493.051H733.418L728.397 438.445H742.393Z" fill="#2E2E2D"/>
<path d="M712.839 484.615C701.434 473.72 700.264 456.434 710.226 446.007C720.187 435.579 737.508 435.959 748.913 446.854C760.318 457.75 761.488 475.035 751.527 485.463C741.565 495.89 724.244 495.51 712.839 484.615Z" fill="#2E2E2D"/>
<path d="M719.342 477.804C712.047 470.835 711.298 459.781 717.668 453.114C724.037 446.446 735.114 446.69 742.408 453.659C749.702 460.627 750.452 471.681 744.082 478.348C737.712 485.016 726.636 484.772 719.342 477.804Z" fill="#575756"/>
<path d="M697.579 438.445C712.643 438.445 726.012 450.684 727.393 465.748C728.773 480.812 717.664 493.051 702.6 493.051H688.666L683.645 438.445H697.579Z" fill="#2E2E2D"/>
<path d="M527.673 438.445C542.737 438.445 556.106 450.684 557.487 465.748C558.868 480.812 547.758 493.051 532.694 493.051H518.76L513.739 438.445H527.673Z" fill="#2E2E2D"/>
<path d="M498.109 484.619C486.704 473.723 485.534 456.438 495.495 446.01C505.457 435.583 522.778 435.962 534.183 446.858C545.588 457.753 546.758 475.039 536.796 485.466C526.834 495.894 509.513 495.514 498.109 484.619Z" fill="#2E2E2D"/>
<path d="M504.613 477.815C497.319 470.847 496.569 459.793 502.939 453.125C509.308 446.458 520.385 446.702 527.679 453.67C534.973 460.638 535.723 471.692 529.353 478.36C522.983 485.027 511.907 484.783 504.613 477.815Z" fill="#575756"/>
<path d="M482.859 438.445C497.922 438.445 511.292 450.684 512.672 465.748C514.053 480.812 502.944 493.051 487.88 493.051H473.946L468.925 438.445H482.859Z" fill="#2E2E2D"/>
<path d="M415.323 404.175L420.47 397.71C422.981 394.509 424.801 390.869 425.805 386.852L453.987 275.569C455.619 269.042 461.393 264.648 468.297 264.648H524.409L542.8 465.497H424.613C420.344 465.497 416.516 462.045 416.139 457.714L412.248 414.908C411.871 410.954 413.001 407.125 415.323 404.175Z" fill="#FF9B2B"/>
<path d="M504.576 465.497L503.76 456.71C502.065 438.382 485.872 423.507 467.544 423.507C449.217 423.507 435.722 438.382 437.417 456.71L438.233 465.497H504.576Z" fill="#182047"/>
<path d="M503.76 456.71L504.576 465.497H471.373L468.925 438.445H482.859C489.198 438.445 495.224 440.642 500.245 444.282C502.128 448.048 503.383 452.254 503.76 456.71Z" fill="#333332"/>
<path d="M453.348 484.636C441.943 473.74 440.773 456.455 450.735 446.027C460.696 435.6 478.017 435.98 489.422 446.875C500.827 457.771 501.997 475.056 492.036 485.484C482.074 495.911 464.753 495.531 453.348 484.636Z" fill="#575756"/>
<path d="M459.852 477.826C452.558 470.858 451.808 459.804 458.178 453.136C464.548 446.469 475.624 446.713 482.919 453.681C490.213 460.649 490.962 471.703 484.593 478.371C478.223 485.038 467.146 484.795 459.852 477.826Z" fill="#B2B2B2"/>
<path d="M477.838 456.145C478.277 457.526 478.528 458.969 478.591 460.476C478.716 467.38 473.758 472.966 466.916 473.531C465.536 473.657 464.155 473.531 462.837 473.28C461.707 473.029 461.016 474.41 461.895 475.226C464.782 478.05 468.674 479.87 472.816 479.808C480.599 479.808 486.374 473.343 485.62 465.56C485.181 461.292 482.922 457.526 479.72 454.953C478.716 454.199 477.461 455.015 477.838 456.145Z" fill="#EDEDED"/>
<path d="M510.692 288.517L525.419 449.146L524.482 449.232L509.755 288.602L510.692 288.517Z" fill="#182047"/>
<path d="M492.022 391.559H510.413L509.973 386.601H491.583L492.022 391.559ZM509.408 390.681H492.838L492.525 387.605H509.095L509.408 390.681Z" fill="#30358C"/>
<path d="M438.986 417.419H466.979V416.477H438.986C437.417 416.477 436.036 415.222 435.91 413.653L433.839 391.057L432.96 391.12L435.032 413.716C435.22 415.787 436.977 417.419 438.986 417.419Z" fill="#182047"/>
<path d="M413.378 433.11H446.204V434.052H413.378V433.11Z" fill="#182047"/>
<path d="M511.794 361.181L505.58 293.018C505.329 290.507 503.132 288.499 500.621 288.499H459.51C457.501 288.499 455.87 289.754 455.493 291.7L435.031 383.902C434.278 387.166 437.417 390.367 440.743 389.677L499.178 378.316C507.212 376.747 512.547 369.529 511.794 361.181Z" fill="#182047"/>
<path d="M502.379 308.019H487.315C485.181 308.019 483.486 309.525 483.235 311.596L474.887 376.559C474.511 379.76 477.524 382.584 480.662 381.956L499.115 378.379C507.212 376.81 512.484 369.592 511.731 361.244L507.274 312.601C507.086 310.027 504.889 308.019 502.379 308.019Z" fill="#367AD1"/>
<path d="M434.526 383.806L435.445 384.01L433.839 391.24L432.92 391.036L434.526 383.806Z" fill="#30358C"/>
<path d="M439.864 390.241C440.178 390.241 440.492 390.241 440.806 390.179L499.24 378.818L499.052 377.939L440.618 389.3C439.237 389.551 437.73 389.049 436.663 387.982C435.596 386.915 435.157 385.409 435.471 384.028L455.932 291.825C456.309 290.131 457.753 289.001 459.51 289.001V288.059C457.313 288.059 455.493 289.503 455.054 291.574L434.592 383.777C434.216 385.471 434.78 387.229 436.036 388.547C437.04 389.677 438.421 390.241 439.864 390.241Z" fill="#182047"/>
<path d="M448.652 391.12H441.371C440.304 391.12 439.362 390.241 439.237 389.174L436.852 363.127C436.726 362.06 437.542 361.181 438.609 361.181H445.953C447.02 361.181 447.961 362.06 448.087 363.127L450.472 389.174C450.535 390.241 449.719 391.12 448.652 391.12Z" fill="#FFB35C"/>
<path d="M423.671 452.316H415.7L414.947 444.157H422.918L423.671 452.316Z" fill="#F2FBFC"/>
<path d="M420.909 406.56L420.533 409.761C420.282 412.021 420.219 414.281 420.407 416.603L421.788 431.604C421.914 432.671 421.098 433.55 420.031 433.55H413.942L412.248 414.908C411.871 410.954 413.001 407.188 415.323 404.238H418.838C420.031 404.175 421.098 405.368 420.909 406.56Z" fill="#F2FBFC"/>
<path d="M484.239 366.767C483.235 362.248 480.411 357.729 479.595 353.084C478.967 349.507 478.779 344.799 481.478 342.163C485.306 338.397 493.529 336.201 495.475 335.636C499.931 334.318 505.894 333.753 509.22 333.753L511.731 361.181C512.484 369.592 507.212 376.747 499.115 378.316L484.993 381.078C485.118 374.236 485.244 371.286 484.239 366.767Z" fill="white"/>
<path d="M482.357 319.693C482.67 317.371 483.737 315.111 486.185 314.421C488.508 313.73 491.269 313.982 493.089 315.049C497.922 318.061 497.044 324.024 498.864 328.794C499.366 330.175 500.37 332.058 500.935 333.439C501.375 334.443 501.563 335.071 500.872 336.075C499.554 338.021 496.981 338.083 495.035 338.021C493.78 338.021 492.022 337.393 491.646 336.452C491.081 335.071 490.328 333.125 489.7 331.493C487.315 331.43 483.863 331.368 482.922 328.731C481.98 326.095 481.98 322.518 482.357 319.693Z" fill="#FEC1B5"/>
<path d="M485.181 313.919C487.441 313.228 490.139 312.915 492.525 313.417C494.596 313.856 496.039 315.551 496.981 317.371C497.546 318.501 497.734 319.819 497.985 321.074C498.236 322.58 499.178 325.091 498.299 326.346C497.357 327.727 495.161 327.978 493.466 327.727C492.713 327.602 491.96 327.288 491.395 326.786C490.642 326.158 490.516 325.907 490.202 325.091C489.763 324.087 488.696 324.463 487.88 323.899C487.315 323.459 487.001 322.706 486.876 322.016C486.75 321.325 486.625 320.76 485.997 320.258C485.683 320.007 485.118 319.944 484.742 319.756C483.926 319.379 483.172 318.94 482.733 318.187C481.603 316.429 483.612 314.421 485.181 313.919Z" fill="#1E2859"/>
<path d="M488.633 324.024C488.319 325.217 488.696 326.346 489.386 326.535C490.077 326.723 490.893 325.907 491.206 324.777C491.52 323.585 491.144 322.455 490.453 322.267C489.763 322.078 488.947 322.894 488.633 324.024Z" fill="#FEC1B5"/>
<path d="M483.11 314.358C483.298 312.224 485.746 311.22 486.625 310.843C489.198 309.902 492.148 310.153 494.659 311.094C497.42 312.161 499.052 314.986 499.115 318.124C499.241 322.016 496.102 323.02 492.901 322.518C490.704 322.204 489.01 321.2 487.252 319.819C486.562 319.317 482.796 317.245 483.11 314.358Z" fill="#FF9B2B"/>
<path d="M477.837 312.412C477.963 311.345 479.218 309.965 480.599 309.776C482.608 309.462 484.24 310.278 486.123 310.969C486.311 311.032 486.248 311.157 486.06 311.22C483.424 312.224 484.365 315.613 485.369 317.873C485.495 318.124 485.307 318.375 485.118 318.312C483.298 317.622 481.729 317.12 480.097 316.116C478.653 315.237 477.586 314.358 477.837 312.412Z" fill="#FFB35C"/>
<path d="M481.666 359.549C481.792 358.922 481.98 358.231 482.482 357.603C483.612 355.909 488.257 350.825 489.449 354.905C489.888 356.285 488.759 363.503 488.445 365.7C488.068 368.211 487.943 372.353 489.888 373.797C490.955 374.613 492.838 374.174 494.094 373.86C494.659 373.734 496.855 372.604 497.42 372.981C499.178 374.048 494.533 376.747 492.713 377.186C490.893 377.563 486.938 377.814 485.118 376.433C485.118 372.604 484.993 370.157 484.24 366.83C483.675 364.382 482.67 361.997 481.666 359.549Z" fill="#DADADA"/>
<path d="M483.424 339.966C487.064 336.389 494.282 339.276 496.981 342.163C499.994 345.364 502.567 350.134 503.446 354.653C504.136 354.402 504.952 354.089 505.643 353.775C505.391 351.013 504.952 344.172 504.889 342.728C504.764 340.28 504.513 336.514 503.822 334.004C503.76 333.815 503.885 333.753 504.011 333.753C504.638 333.627 505.454 333.564 505.956 333.564C506.145 333.564 506.207 333.753 506.27 333.815C506.961 335.196 507.4 339.025 507.463 340.531C507.651 343.544 508.028 349.758 508.592 352.708C508.906 356.16 510.727 362.876 511.605 365.386C510.601 371.914 505.831 377.061 499.115 378.379L484.993 381.14C484.993 381.14 484.051 377.186 484.24 375.994C484.428 374.613 486.687 375.805 487.441 376.056C492.148 377.626 496.353 375.178 498.55 371.161C500.182 368.274 501.374 363.064 500.684 356.411C500.119 352.394 498.864 350.072 498.236 348.879C495.851 344.423 492.022 341.033 488.821 340.092C486.625 339.464 484.993 339.715 484.114 340.155C483.737 340.28 482.67 340.72 483.424 339.966Z" fill="#FF9B2B"/>
<path d="M448.087 363.252C451.099 364.759 454.3 366.265 458.004 368.085C461.205 369.654 463.59 368.274 465.222 366.077C467.607 362.939 475.013 350.26 478.528 345.615C481.352 341.912 482.482 340.217 486.562 341.096C488.445 341.473 490.642 344.36 490.83 348C490.893 350.009 490.077 355.658 487.88 358.922C483.988 364.633 474.448 373.044 470.306 376.119C466.728 378.818 464.155 380.073 459.071 377.751C454.489 375.68 451.915 373.483 448.84 371.161L448.087 363.252Z" fill="white"/>
<path d="M526.543 288.059L526.669 289.001H448.401V288.059H526.543Z" fill="#182047"/>
<path d="M507.526 448.676H541.231L541.356 449.617H506.835L506.773 449.241C502.379 431.353 484.867 417.356 466.979 417.356V416.415C485.118 416.477 502.881 430.6 507.526 448.676Z" fill="#182047"/>
<path d="M743.272 216.695H520.016L541.293 448.676H764.487L743.272 216.695Z" fill="white"/>
<path d="M542.8 465.497H843.948L842.379 448.676H541.293L542.8 465.497Z" fill="#182047"/>
<path d="M764.487 448.676H842.379L821.164 216.695H743.272L764.487 448.676Z" fill="#C6C6C6"/>
<path d="M719.233 465.497L718.543 456.71C716.848 438.382 700.654 423.507 682.327 423.507C664 423.507 650.505 438.382 652.2 456.71L653.016 465.497H719.233Z" fill="#182047"/>
<path d="M683.645 438.445L686.093 465.497H719.17L718.48 456.71C718.103 452.316 716.848 448.111 714.902 444.282C709.944 440.642 703.856 438.445 697.516 438.445H683.645Z" fill="#2E2E2D"/>
<path d="M668.079 484.632C656.674 473.736 655.504 456.451 665.465 446.023C675.427 435.596 692.748 435.976 704.153 446.871C715.558 457.767 716.728 475.052 706.766 485.48C696.805 495.907 679.484 495.527 668.079 484.632Z" fill="#575756"/>
<path d="M674.581 477.821C667.287 470.852 666.538 459.798 672.907 453.131C679.277 446.463 690.354 446.707 697.648 453.675C704.942 460.644 705.691 471.698 699.322 478.365C692.952 485.033 681.875 484.789 674.581 477.821Z" fill="#9D9D9C"/>
<path d="M692.558 456.145C692.997 457.526 693.248 458.969 693.311 460.476C693.436 467.38 688.478 472.966 681.637 473.531C680.256 473.657 678.875 473.531 677.557 473.28C676.427 473.029 675.737 474.41 676.615 475.226C679.503 478.05 683.394 479.87 687.537 479.808C695.319 479.808 701.094 473.343 700.341 465.56C699.901 461.292 697.642 457.526 694.441 454.953C693.436 454.199 692.181 455.015 692.558 456.145Z" fill="#DADADA"/>
<path d="M751.62 230.88H815.452V231.822H751.62V230.88Z" fill="#706F6F"/>
<path d="M815.91 231.343L835.799 448.661L834.861 448.747L814.972 231.429L815.91 231.343Z" fill="#706F6F"/>
<path d="M752.109 231.38L771.998 448.698L771.061 448.784L751.171 231.466L752.109 231.38Z" fill="#706F6F"/>
<path d="M784.009 231.361L803.898 448.68L802.961 448.766L783.072 231.447L784.009 231.361Z" fill="#706F6F"/>
<defs>
<linearGradient id="paint0_linear_63_711" x1="1481.28" y1="257.859" x2="-125.219" y2="257.859" gradientUnits="userSpaceOnUse">
<stop stop-color="#BCE5F7"/>
<stop offset="0.3034" stop-color="#CDECF9"/>
<stop offset="0.6632" stop-color="#DAF2FB"/>
<stop offset="1" stop-color="#DEF4FC"/>
</linearGradient>
<linearGradient id="paint1_linear_63_711" x1="-25.0512" y1="363.51" x2="961.643" y2="363.51" gradientUnits="userSpaceOnUse">
<stop stop-color="#26D5A9"/>
<stop offset="1" stop-color="#76EBD8"/>
</linearGradient>
<linearGradient id="paint2_linear_63_711" x1="160.66" y1="251.818" x2="70.287" y2="95.2877" gradientUnits="userSpaceOnUse">
<stop stop-color="#EC7B35"/>
<stop offset="1" stop-color="#FA9C55"/>
</linearGradient>
</defs>
</svg>
