<svg width="1920" height="352" viewBox="0 0 1920 352" fill="none" xmlns="http://www.w3.org/2000/svg">
<path d="M0.00268555 0C4.22473 31.946 6.29468 37.001 7.71765 52.454C14.1637 122.455 63.1246 178.864 118.851 217.468C185.126 263.38 280.055 302.5 361.77 292.061C427.127 283.711 490.365 246.475 555.014 259.196C572.906 262.717 589.803 269.967 606.853 276.433C649.799 292.72 695.04 304.328 740.969 304.718C800.105 305.22 857.583 287.263 915.102 273.522C972.621 259.781 1033.67 250.263 1090.29 267.343C1128.38 278.836 1164.27 304.039 1193.5 331.047H0.00268555C0.00268555 331.047 -0.0032959 0.159 0.00268555 0Z" fill="#C5EEF9"/>
<rect y="331.047" width="1920" height="20" fill="#C5EEF9"/>
</svg>
