<svg width="85" height="85" viewBox="0 0 85 85" fill="none" xmlns="http://www.w3.org/2000/svg">
<path d="M63.5882 73.4117L85 52L71.2353 38.2353L62.0588 47.4118L59 44.3529C64.0599 39.293 64.0599 31.0599 59 26C53.9401 20.9401 45.707 20.9401 40.6471 26L37.5882 22.9412L46.7647 13.7647L33 0L11.5882 21.4118L25.3529 35.1765L34.5294 26L37.5882 29.0588L24.5656 42.0814C17.3311 38.6346 8.3935 39.9006 2.41177 45.8823L0.882359 47.4118L17.7059 64.2353L14.384 67.5572C11.9725 66.4084 8.99385 66.8297 7.00001 68.8235C4.46995 71.3536 4.46995 75.4699 7.00001 78C9.53006 80.53 13.6464 80.53 16.1765 78C18.1703 76.0061 18.5916 73.0275 17.4428 70.616L20.7647 67.2941L37.5882 84.1176L39.1176 82.5882C45.0994 76.6065 46.3654 67.6689 42.9185 60.4344C45.2103 58.1426 53.0371 50.3158 55.9412 47.4118L59 50.4706L49.8235 59.647L63.5882 73.4117ZM40.6471 13.7647L37.5882 16.8235L29.9412 9.17647L33 6.11765L40.6471 13.7647ZM34.5294 19.8823L31.4706 22.9412L23.8235 15.2941L26.8824 12.2353L34.5294 19.8823ZM17.7059 21.4118L20.7647 18.3529L28.4118 26L25.3529 29.0588L17.7059 21.4118ZM10.0588 74.9412C9.21551 74.0978 9.21541 72.7258 10.0588 71.8823C10.9021 71.039 12.2743 71.039 13.1177 71.8823C13.9611 72.7258 13.961 74.0978 13.1177 74.9412C12.2742 75.7846 10.9022 75.7846 10.0588 74.9412ZM55.9412 29.0588C59.3144 32.4321 59.3144 37.9208 55.9412 41.2941L52.8823 44.3529L40.6471 32.1176L43.7059 29.0588C47.0791 25.6855 52.5679 25.6855 55.9412 29.0588ZM26.8824 48.9412L36.0588 58.1176C38.9692 61.028 40.4437 64.8381 40.4844 68.6609L16.3391 44.5156C20.1619 44.5562 23.972 46.0308 26.8824 48.9412ZM7.1089 47.5206C8.34364 46.5961 9.68902 45.8855 11.0933 45.3874L39.6126 73.9067C39.1144 75.3109 38.4038 76.6562 37.4792 77.891L7.1089 47.5206ZM40.6471 56.5882C36.8917 52.8329 32.1701 48.1113 28.4118 44.3529C29.4857 43.279 36.1329 36.6317 37.5882 35.1765L49.8235 47.4118L40.6471 56.5882ZM55.9412 59.647L59 56.5882L66.647 64.2353L63.5882 67.2941L55.9412 59.647ZM62.0588 53.5294L65.1176 50.4706L72.7647 58.1176L69.7059 61.1765L62.0588 53.5294ZM78.8823 52L75.8235 55.0588L68.1765 47.4118L71.2353 44.3529L78.8823 52Z" fill="#5F5F5F"/>
</svg>
