<svg width="80" height="64" viewBox="0 0 80 64" fill="none" xmlns="http://www.w3.org/2000/svg">
<path d="M77.6562 9.94175H76.2312C75.2625 4.30509 70.3163 0 64.3745 0H15.6255C9.68375 0 4.7375 4.30509 3.76875 9.94175H2.34375C1.04937 9.94175 0 10.985 0 12.2718V61.6699C0 62.9567 1.04937 64 2.34375 64H77.6562C78.9506 64 80 62.9567 80 61.6699V12.2718C80 10.985 78.9506 9.94175 77.6562 9.94175ZM51.5627 19.2621V14.6019H62.5002V19.2621H51.5627ZM35.9377 19.2621V14.6019H46.8752V19.2621H35.9377ZM20.3127 19.2621V14.6019H31.2502V19.2621H20.3127ZM4.6875 19.2621V14.6019H15.6252V19.2621H4.6875ZM67.1877 14.6019H75.3125V19.2621H67.1877V14.6019ZM15.6255 4.66019H64.3745C67.7197 4.66019 70.5497 6.89491 71.433 9.94175H8.56703C9.45031 6.89491 12.2803 4.66019 15.6255 4.66019ZM32.8125 50.0194H14.0625V45.3592H32.8125V50.0194ZM14.0625 54.6796H32.8125V59.3398H14.0625V54.6796ZM32.8125 40.699H14.0625V36.0388H32.8125V40.699ZM65.9375 50.0194H47.1875V45.3592H65.9375V50.0194ZM47.1875 54.6796H65.9375V59.3398H47.1875V54.6796ZM65.9375 40.699H47.1875V36.0388H65.9375V40.699ZM70.625 59.3398V33.7087C70.625 32.4219 69.5756 31.3786 68.2812 31.3786H44.8438C43.5494 31.3786 42.5 32.4219 42.5 33.7087V59.3398H37.5V33.7087C37.5 32.4219 36.4506 31.3786 35.1562 31.3786H11.7188C10.4244 31.3786 9.375 32.4219 9.375 33.7087V59.3398H4.6875V23.9223H75.3125V59.3398H70.625Z" fill="#5F5F5F"/>
</svg>
