<svg width="72" height="90" viewBox="0 0 72 90" fill="none" xmlns="http://www.w3.org/2000/svg">
<path d="M65.5404 15.6482C58.7464 5.70428 47.979 0 36.001 0C24.0231 0 13.2557 5.70428 6.46168 15.6482C-0.298938 25.5419 -1.85999 38.0675 2.27755 49.1338C3.38425 52.1559 5.14345 55.092 7.49381 57.8433L33.6321 88.8922C34.2232 89.595 35.0894 90 36.001 90C36.9127 90 37.7789 89.5952 38.37 88.8922L64.501 57.8517C66.8618 55.0846 68.6187 52.1517 69.7162 49.1539C73.8621 38.0675 72.301 25.5419 65.5404 15.6482ZM63.8891 46.9499C63.0428 49.2629 61.6612 51.5496 59.7848 53.7492C59.7796 53.7544 59.7744 53.7597 59.7702 53.766L36.001 81.9997L12.2173 53.7483C10.342 51.5507 8.9603 49.2641 8.10565 46.929C4.68388 37.777 5.98247 27.4206 11.5804 19.2273C17.1959 11.0078 26.0975 6.29367 36.001 6.29367C45.9045 6.29367 54.8049 11.0076 60.4206 19.2273C66.0196 27.4206 67.3193 37.777 63.8891 46.9499Z" fill="#5F5F5F"/>
<path d="M36.001 18.6714C26.393 18.6714 18.5754 26.5763 18.5754 36.2938C18.5754 46.0113 26.392 53.9162 36.001 53.9162C45.6099 53.9162 53.4265 46.0113 53.4265 36.2938C53.4265 26.5773 45.6089 18.6714 36.001 18.6714ZM36.001 47.6224C29.8242 47.6224 24.7988 42.5402 24.7988 36.2936C24.7988 30.0471 29.8242 24.9649 36.001 24.9649C42.1777 24.9649 47.2031 30.0471 47.2031 36.2936C47.2031 42.5402 42.1777 47.6224 36.001 47.6224Z" fill="#5F5F5F"/>
</svg>
