<svg width="90" height="56" viewBox="0 0 90 56" fill="none" xmlns="http://www.w3.org/2000/svg">
<path d="M72.774 36.0608C67.0643 36.0608 62.4193 40.5334 62.4193 46.0309C62.4193 51.5274 67.0645 56 72.774 56C78.4846 56 83.1289 51.5274 83.1289 46.0309C83.1289 40.5334 78.4837 36.0608 72.774 36.0608ZM72.774 50.4084C70.2656 50.4084 68.2257 48.4442 68.2257 46.0299C68.2257 43.6147 70.2656 41.6506 72.774 41.6506C75.2824 41.6506 77.3223 43.6157 77.3223 46.0299C77.3225 48.4441 75.2824 50.4084 72.774 50.4084Z" fill="#5F5F5F"/>
<path d="M57.8708 0H2.9032C1.29972 0 0 1.25142 0 2.79548V45.8435C0 47.3874 1.29972 48.6389 2.9032 48.6389H12V43.0482H5.8064V5.59079H54.9676V45.8435H60.774V2.79548C60.7742 1.25142 59.4744 0 57.8708 0Z" fill="#5F5F5F"/>
<path d="M65.3223 43.0482H26.2256V48.6389H65.3223V43.0482Z" fill="#5F5F5F"/>
<path d="M19.0644 36.0608C13.3547 36.0608 8.70949 40.5334 8.70949 46.0309C8.70949 51.5274 13.3547 56 19.0644 56C24.7741 56 29.4193 51.5274 29.4193 46.0309C29.4191 40.5334 24.7741 36.0608 19.0644 36.0608ZM19.0644 50.4084C16.556 50.4084 14.5161 48.4442 14.5161 46.0299C14.5161 43.6147 16.556 41.6506 19.0644 41.6506C21.5728 41.6506 23.6127 43.6157 23.6127 46.0299C23.6127 48.4441 21.5717 50.4084 19.0644 50.4084Z" fill="#5F5F5F"/>
<path d="M87.0968 23.2013H57.871V28.7919H84.1935V43.0481H80.0322V48.6387H87.0966C88.7001 48.6387 89.9998 47.3883 89.9998 45.8434V25.9966C90 24.4527 88.7003 23.2013 87.0968 23.2013Z" fill="#5F5F5F"/>
<path d="M78.3185 11.6044C77.8086 10.7118 76.833 10.1565 75.7742 10.1565H57.871V15.7471H74.0574L80.6815 27.3441L85.7699 24.6493L78.3185 11.6044Z" fill="#5F5F5F"/>
</svg>
