<svg width="80" height="80" viewBox="0 0 80 80" fill="none" xmlns="http://www.w3.org/2000/svg">
<path d="M80 17.0254C80 16.0105 79.3522 15.096 78.3602 14.7103L41.005 0.187715C40.361 -0.0625716 39.639 -0.0625716 38.995 0.187715L1.63975 14.7103C0.647801 15.0959 0 16.0105 0 17.0254V62.9746C0 63.9895 0.647635 64.904 1.63975 65.2897L38.995 79.8123C39.632 80.0599 40.3481 80.0652 41.0017 79.8121C41.0336 79.8021 39.6193 80.351 78.3602 65.2897C79.3524 64.9041 80 63.9895 80 62.9746V17.0254ZM40 29.0526L26.236 23.7017L55.9815 11.4218L70.666 17.1307L40 29.0526ZM5.28952 20.9699L17.1647 25.5866V38.6115C17.1647 39.9937 18.3488 41.1144 19.8094 41.1144C21.27 41.1144 22.4542 39.9937 22.4542 38.6115V27.643L37.3552 33.4361V73.763L5.28952 61.2969V20.9699ZM40 5.20862L49.1684 8.77301L19.4229 21.0528L9.33402 17.1305L40 5.20862ZM42.6448 33.4361L74.7105 20.9699V61.2969L42.6448 73.763V33.4361Z" fill="#5F5F5F"/>
</svg>
