<svg width="86" height="66" viewBox="0 0 86 66" fill="none" xmlns="http://www.w3.org/2000/svg">
<path d="M85.9248 32.2136L83.7484 23.5756C81.782 15.7709 74.7459 10.3199 66.6382 10.3199H58.2852C55.0005 10.3199 52.2 12.4101 51.1599 15.3199H47.8711V2.81995C47.8711 1.43928 46.743 0.319946 45.3516 0.319946C44.0229 0.319946 16.4431 0.319946 15.1172 0.319946C13.7257 0.319946 12.5977 1.43928 12.5977 2.81995V15.3199H7.55859C6.16714 15.3199 5.03906 16.4393 5.03906 17.8199V30.3199H2.51953C1.12808 30.3199 0 31.4393 0 32.8199V47.8199C0 51.9554 3.39079 55.3199 7.55859 55.3199H10.0781C10.0781 60.8339 14.5992 65.3199 20.1562 65.3199C25.7133 65.3199 30.2344 60.8339 30.2344 55.3199C31.3023 55.3199 54.6999 55.3199 55.7656 55.3199C55.7656 60.8339 60.2867 65.3199 65.8438 65.3199C71.4008 65.3199 75.9219 60.8339 75.9219 55.3199H78.4414C82.6092 55.3199 86 51.9554 86 47.8199V32.8199C86 32.6156 85.9748 32.4119 85.9248 32.2136ZM32.7539 5.31995H42.832V15.3199C41.7639 15.3199 33.822 15.3199 32.7539 15.3199V5.31995ZM35.2734 20.3199V30.3199H25.1953V20.3199H30.2344H35.2734ZM17.6367 5.31995H27.7148V15.3199C26.6467 15.3199 18.7048 15.3199 17.6367 15.3199V5.31995ZM10.0781 20.3199C11.1462 20.3199 19.0881 20.3199 20.1562 20.3199V30.3199H10.0781V20.3199ZM20.1562 60.3199C17.3777 60.3199 15.1172 58.0769 15.1172 55.3199C15.1172 52.5629 17.3777 50.3199 20.1562 50.3199C22.9348 50.3199 25.1953 52.5629 25.1953 55.3199C25.1953 58.0769 22.9348 60.3199 20.1562 60.3199ZM50.7266 50.3199H28.8785C27.1332 47.3339 23.8783 45.3199 20.1562 45.3199C16.4342 45.3199 13.1793 47.3339 11.434 50.3199H7.55859C6.16932 50.3199 5.03906 49.1984 5.03906 47.8199V35.3199H50.7266V50.3199ZM50.7266 30.3199H40.3125V20.3199H50.7266V30.3199ZM65.8438 60.3199C63.0652 60.3199 60.8047 58.0769 60.8047 55.3199C60.8047 52.5629 63.0652 50.3199 65.8438 50.3199C68.6223 50.3199 70.8828 52.5629 70.8828 55.3199C70.8828 58.0769 68.6223 60.3199 65.8438 60.3199ZM80.9609 47.8199C80.9609 49.1984 79.8307 50.3199 78.4414 50.3199H74.566C72.8207 47.3339 69.5658 45.3199 65.8438 45.3199C62.1217 45.3199 58.8668 47.3339 57.1215 50.3199H55.7656V17.8199C55.7656 16.4414 56.8959 15.3199 58.2852 15.3199H60.8047V32.8199C60.8047 36.9554 64.1955 40.3199 68.3633 40.3199C69.5077 40.3199 79.7951 40.3199 80.9609 40.3199V47.8199ZM80.9609 35.3199H77.4789L78.1753 33.938C78.7977 32.7029 78.2933 31.2013 77.0486 30.5838C75.8045 29.9664 74.2907 30.4668 73.6684 31.7018L71.8453 35.3199H68.3633C66.974 35.3199 65.8438 34.1984 65.8438 32.8199V15.3199H66.6382C72.4295 15.3199 77.4551 19.2134 78.8598 24.7883L80.9609 33.1278V35.3199Z" fill="#5F5F5F"/>
</svg>
