<svg width="80" height="80" viewBox="0 0 80 80" fill="none" xmlns="http://www.w3.org/2000/svg">
<path d="M36.4078 55.8606C36.8613 56.3031 37.476 56.5522 38.1176 56.5522C38.7586 56.5522 39.3733 56.3037 39.8268 55.8606L48.4584 47.4274C49.4029 46.5045 49.4029 45.0092 48.4584 44.0863C47.5144 43.1641 45.9833 43.1641 45.0394 44.0863L38.1176 50.849L34.9616 47.7655C34.017 46.8433 32.4865 46.8433 31.5419 47.7655C30.598 48.6878 30.598 50.1837 31.5419 51.1066L36.4078 55.8606Z" fill="#5F5F5F"/>
<path d="M40.0005 68.7256C50.5837 68.7256 59.1934 60.3131 59.1934 49.9731C59.1934 39.6332 50.5837 31.2213 40.0005 31.2213C29.4167 31.2213 20.807 39.6332 20.807 49.9731C20.807 60.3131 29.4173 68.7256 40.0005 68.7256ZM40.0005 35.9454C47.9174 35.9454 54.3582 42.2382 54.3582 49.9731C54.3582 57.7081 47.9174 64.0015 40.0005 64.0015C32.0836 64.0015 25.6422 57.7081 25.6422 49.9731C25.6422 42.2382 32.0836 35.9454 40.0005 35.9454Z" fill="#5F5F5F"/>
<path d="M72.1812 5.02991H67.7714V2.36206C67.7714 1.05774 66.6887 0 65.3537 0C64.0187 0 62.9361 1.05774 62.9361 2.36206V5.02991H58.1852V2.36206C58.1852 1.05774 57.1026 0 55.767 0C54.432 0 53.3494 1.05774 53.3494 2.36206V5.02991H26.6519V2.36206C26.6519 1.05774 25.5693 0 24.2336 0C22.8986 0 21.816 1.05774 21.816 2.36206V5.02991H17.0651V2.36206C17.0651 1.05774 15.9825 0 14.6469 0C13.3119 0 12.2293 1.05774 12.2293 2.36206V5.02991H7.81883C3.50773 5.02991 0 8.45703 0 12.6697V72.3608C0 76.5729 3.50773 80 7.81883 80H72.1812C76.4929 80 80 76.5729 80 72.3608V12.6697C80 8.45703 76.4923 5.02991 72.1812 5.02991ZM75.1641 72.3608C75.1641 73.9679 73.826 75.2759 72.1812 75.2759H7.81883C6.17398 75.2759 4.83523 73.9679 4.83523 72.3608V24.6716H75.1641V72.3608ZM4.83523 12.6697C4.83523 11.062 6.17398 9.75464 7.81883 9.75464H12.2293V12.4225C12.2293 13.7268 13.3119 14.7845 14.6475 14.7845C15.9825 14.7845 17.0651 13.7268 17.0651 12.4225V9.75464H21.816V12.4225C21.816 13.7268 22.8986 14.7845 24.2343 14.7845C25.5693 14.7845 26.6519 13.7268 26.6519 12.4225V9.75464H53.3494V12.4225C53.3494 13.7268 54.432 14.7845 55.7676 14.7845C57.1026 14.7845 58.1852 13.7268 58.1852 12.4225V9.75464H62.9361V12.4225C62.9361 13.7268 64.0187 14.7845 65.3537 14.7845C66.6894 14.7845 67.772 13.7268 67.772 12.4225V9.75464H72.1812C73.826 9.75464 75.1648 11.062 75.1648 12.6697V19.9469H4.83523V12.6697Z" fill="#5F5F5F"/>
</svg>
