<svg width="80" height="80" viewBox="0 0 80 80" fill="none" xmlns="http://www.w3.org/2000/svg">
<path d="M2.34375 61.25H4.43481C5.64941 61.25 6.84387 61.5649 7.89917 62.1631C27.934 79.1168 26.7267 78.1439 27.0361 78.3301C28.8574 79.4226 30.9418 80 33.0652 80H58.5938C62.4707 80 65.625 76.8457 65.625 72.9687C65.625 69.7308 63.4241 66.9983 60.4407 66.1853C60.7599 65.3827 60.9375 64.5087 60.9375 63.5937C60.9375 60.3558 58.7366 57.6233 55.7532 56.8103C56.0724 56.0077 56.25 55.1337 56.25 54.2187C56.25 50.3418 53.0957 47.1875 49.2188 47.1875H33.3807L27.4377 41.2451C25.2246 39.0314 22.2815 37.8125 19.1516 37.8125H2.34375C1.04919 37.8125 0 38.8617 0 40.1562V58.9062C0 60.2008 1.04919 61.25 2.34375 61.25ZM53.9062 65.9375H39.8444C39.2194 65.9375 38.6316 65.6946 38.1891 65.2533C38.8995 64.9133 39.5544 64.4513 40.1276 63.8776C40.882 63.1232 41.4435 62.2272 41.7883 61.25H53.9062C55.1984 61.25 56.25 62.3016 56.25 63.5937C56.25 64.8865 55.1984 65.9375 53.9062 65.9375ZM49.2188 51.875C50.5109 51.875 51.5625 52.9266 51.5625 54.2187C51.5625 55.5109 50.5109 56.5625 49.2188 56.5625H41.7883C41.4435 55.5853 40.882 54.6893 40.1276 53.9349L38.0682 51.875H49.2188ZM4.6875 42.5H19.1516C21.0297 42.5 22.7954 43.2312 24.1229 44.5593L36.8134 57.2491C37.2559 57.6923 37.5 58.2806 37.5 58.9062C37.5 59.5319 37.2559 60.1202 36.8134 60.5634C35.8997 61.4764 34.4128 61.4764 33.4991 60.5634L25.4974 52.5616C24.5825 51.6461 23.0981 51.6461 22.1832 52.5616C21.2677 53.4766 21.2677 54.9603 22.1832 55.8759L34.8724 68.5657C36.1975 69.8907 37.959 70.6219 39.8334 70.6244C39.8352 70.6244 39.837 70.625 39.8389 70.625H58.5938C59.8859 70.625 60.9375 71.676 60.9375 72.9687C60.9375 74.2609 59.8859 75.3125 58.5938 75.3125H33.0652C31.8506 75.3125 30.6561 74.9969 29.6008 74.3994C9.56604 57.4457 10.7733 58.4186 10.4639 58.2324C8.71521 57.1832 6.72363 56.6095 4.6875 56.5655V42.5Z" fill="#5F5F5F"/>
<path d="M77.6562 18.125H75.5652C74.3439 18.125 73.1427 17.8064 72.0825 17.2021L53.2385 1.84448C52.2076 1.00525 49.5837 0 46.9348 0H21.4062C17.3981 0 14.375 2.82104 14.375 6.5625C14.375 9.78821 16.5381 12.428 19.5538 13.2043C19.2377 14.0027 19.0625 14.8718 19.0625 15.7812C19.0625 19.0192 21.2634 21.7517 24.2468 22.5647C23.9276 23.3673 23.75 24.2413 23.75 25.1562C23.75 29.0332 26.9043 32.1875 30.7812 32.1875H46.6193L52.5623 38.1299C54.7754 40.3436 57.7185 41.5625 60.8484 41.5625H77.6562C78.9508 41.5625 80 40.5133 80 39.2188V20.4688C80 19.1742 78.9508 18.125 77.6562 18.125ZM26.0938 13.4375H40.1556C40.7806 13.4375 41.3684 13.6804 41.8109 14.1217C41.1005 14.4617 40.4456 14.9237 39.8724 15.4974C39.118 16.2518 38.5565 17.1478 38.2117 18.125H26.0938C24.8016 18.125 23.75 17.0734 23.75 15.7812C23.75 14.4885 24.8016 13.4375 26.0938 13.4375ZM30.7812 27.5C29.4891 27.5 28.4375 26.4484 28.4375 25.1562C28.4375 23.8641 29.4891 22.8125 30.7812 22.8125H38.2117C38.5565 23.7897 39.118 24.6857 39.8724 25.4401L41.9318 27.5H30.7812ZM75.3125 36.875H60.8484C58.9703 36.875 57.2046 36.1438 55.8771 34.8157C54.3872 33.3264 44.4653 23.4039 43.1866 22.1259C42.2705 21.2091 42.2705 19.7284 43.1866 18.8116C44.1034 17.8955 45.5841 17.8955 46.5009 18.8116L54.5026 26.8134C55.4175 27.7289 56.9019 27.7289 57.8168 26.8134C58.7323 25.8984 58.7323 24.4147 57.8168 23.4991L45.1276 10.8093C43.8031 9.48486 42.0428 8.75427 40.1697 8.75061C40.1672 8.75061 40.1654 8.75 40.163 8.75C40.163 8.75 23.9301 8.75 21.4062 8.75C20.0702 8.75 19.0625 7.80945 19.0625 6.5625C19.0625 5.17883 20.3247 4.6875 21.4062 4.6875H46.9348C48.175 4.6875 49.3756 5 50.4175 5.59265C70.4828 21.9342 69.2627 20.9784 69.5361 21.1426C71.2848 22.1918 73.2764 22.7661 75.3125 22.8101V36.875Z" fill="#5F5F5F"/>
</svg>
